<svg xmlns="http://www.w3.org/2000/svg" xmlns:xlink="http://www.w3.org/1999/xlink" width="750" zoomAndPan="magnify" viewBox="0 0 562.5 110.999996" height="148" preserveAspectRatio="xMidYMid meet" version="1.0"><defs><filter x="0%" y="0%" width="100%" height="100%" id="1e09d2ca9e"><feColorMatrix values="0 0 0 0 1 0 0 0 0 1 0 0 0 0 1 0 0 0 1 0" color-interpolation-filters="sRGB"/></filter><g/><clipPath id="134756aa03"><path d="M 0 0.0507812 L 81 0.0507812 L 81 81 L 0 81 Z M 0 0.0507812 " clip-rule="nonzero"/></clipPath><mask id="f593c8948e"><g filter="url(#1e09d2ca9e)"><rect x="-56.25" width="675" fill="#000000" y="-11.1" height="133.199995" fill-opacity="0.6"/></g></mask><clipPath id="73e62c8d26"><path d="M 0 0.117188 L 80.070312 0.117188 L 80.070312 80.1875 L 0 80.1875 Z M 0 0.117188 " clip-rule="nonzero"/></clipPath><clipPath id="1e520ce6ef"><path d="M 9 0.117188 L 71.070312 0.117188 C 76.039062 0.117188 80.070312 4.148438 80.070312 9.117188 L 80.070312 71.1875 C 80.070312 76.160156 76.039062 80.1875 71.070312 80.1875 L 9 80.1875 C 4.03125 80.1875 0 76.160156 0 71.1875 L 0 9.117188 C 0 4.148438 4.03125 0.117188 9 0.117188 " clip-rule="nonzero"/></clipPath><clipPath id="3f49166125"><rect x="0" width="81" y="0" height="81"/></clipPath><mask id="62f971856b"><g filter="url(#1e09d2ca9e)"><rect x="-56.25" width="675" fill="#000000" y="-11.1" height="133.199995" fill-opacity="0.698"/></g></mask><clipPath id="065631a22a"><path d="M 0.65625 1.046875 L 80.726562 1.046875 L 80.726562 81.117188 L 0.65625 81.117188 Z M 0.65625 1.046875 " clip-rule="nonzero"/></clipPath><clipPath id="a70f84c5e0"><path d="M 9.65625 1.046875 L 71.726562 1.046875 C 76.695312 1.046875 80.726562 5.074219 80.726562 10.046875 L 80.726562 72.117188 C 80.726562 77.085938 76.695312 81.117188 71.726562 81.117188 L 9.65625 81.117188 C 4.6875 81.117188 0.65625 77.085938 0.65625 72.117188 L 0.65625 10.046875 C 0.65625 5.074219 4.6875 1.046875 9.65625 1.046875 " clip-rule="nonzero"/></clipPath><clipPath id="8a09e73cbe"><rect x="0" width="81" y="0" height="82"/></clipPath><clipPath id="9e5340e51e"><path d="M 30 30 L 111 30 L 111 110.949219 L 30 110.949219 Z M 30 30 " clip-rule="nonzero"/></clipPath><mask id="b3cab9afc4"><g filter="url(#1e09d2ca9e)"><rect x="-56.25" width="675" fill="#000000" y="-11.1" height="133.199995" fill-opacity="0.898"/></g></mask><clipPath id="4dd4e2229f"><path d="M 0.347656 0.675781 L 80.417969 0.675781 L 80.417969 80.746094 L 0.347656 80.746094 Z M 0.347656 0.675781 " clip-rule="nonzero"/></clipPath><clipPath id="7604a15d6b"><path d="M 9.347656 0.675781 L 71.417969 0.675781 C 76.386719 0.675781 80.417969 4.703125 80.417969 9.675781 L 80.417969 71.746094 C 80.417969 76.714844 76.386719 80.746094 71.417969 80.746094 L 9.347656 80.746094 C 4.375 80.746094 0.347656 76.714844 0.347656 71.746094 L 0.347656 9.675781 C 0.347656 4.703125 4.375 0.675781 9.347656 0.675781 " clip-rule="nonzero"/></clipPath><clipPath id="4c32e07b79"><rect x="0" width="81" y="0" height="81"/></clipPath></defs><g clip-path="url(#134756aa03)"><g mask="url(#f593c8948e)"><g transform="matrix(1, 0, 0, 1, 0, 0.000000000000011872)"><g clip-path="url(#3f49166125)"><g clip-path="url(#73e62c8d26)"><g clip-path="url(#1e520ce6ef)"><path fill="#5b21b6" d="M 0 0.117188 L 80.070312 0.117188 L 80.070312 80.1875 L 0 80.1875 Z M 0 0.117188 " fill-opacity="1" fill-rule="nonzero"/></g></g></g></g></g></g><g mask="url(#62f971856b)"><g transform="matrix(1, 0, 0, 1, 13, 13)"><g clip-path="url(#8a09e73cbe)"><g clip-path="url(#065631a22a)"><g clip-path="url(#a70f84c5e0)"><path fill="#5b21b6" d="M 0.65625 1.046875 L 80.726562 1.046875 L 80.726562 81.117188 L 0.65625 81.117188 Z M 0.65625 1.046875 " fill-opacity="1" fill-rule="nonzero"/></g></g></g></g></g><g clip-path="url(#9e5340e51e)"><g mask="url(#b3cab9afc4)"><g transform="matrix(1, 0, 0, 1, 30, 30)"><g clip-path="url(#4c32e07b79)"><g clip-path="url(#4dd4e2229f)"><g clip-path="url(#7604a15d6b)"><path fill="#5b21b6" d="M 0.347656 0.675781 L 80.417969 0.675781 L 80.417969 80.746094 L 0.347656 80.746094 Z M 0.347656 0.675781 " fill-opacity="1" fill-rule="nonzero"/></g></g></g></g></g></g><g fill="#ffffff" fill-opacity="1"><g transform="translate(139.967097, 71.038447)"><g><path d="M 25.234375 -22.859375 L 10.125 -22.859375 L 10.125 -17.1875 L 23.765625 -17.1875 L 23.765625 -11.46875 L 10.125 -11.46875 L 10.125 -5.71875 L 25.6875 -5.71875 L 25.6875 0 L 2.859375 0 L 2.859375 -28.578125 L 25.234375 -28.578125 Z M 25.234375 -22.859375 "/></g></g></g><g fill="#ffffff" fill-opacity="1"><g transform="translate(167.475843, 71.038447)"><g><path d="M 19.4375 -14.9375 L 29.6875 0 L 20.984375 0 L 14.828125 -9.109375 L 8.65625 0 L 0.203125 0 L 10.40625 -14.609375 L 0.859375 -28.578125 L 9.3125 -28.578125 L 14.828125 -20.25 L 20.328125 -28.578125 L 28.859375 -28.578125 Z M 19.4375 -14.9375 "/></g></g></g><g fill="#ffffff" fill-opacity="1"><g transform="translate(197.433445, 71.038447)"><g><path d="M 2.859375 -28.578125 L 15.3125 -28.578125 C 18.957031 -28.578125 21.785156 -27.710938 23.796875 -25.984375 C 25.816406 -24.253906 26.828125 -21.800781 26.828125 -18.625 C 26.828125 -15.269531 25.816406 -12.664062 23.796875 -10.8125 C 21.785156 -8.96875 18.957031 -8.046875 15.3125 -8.046875 L 10.125 -8.046875 L 10.125 0 L 2.859375 0 Z M 10.125 -22.859375 L 10.125 -13.765625 L 14.9375 -13.765625 C 16.550781 -13.765625 17.789062 -14.15625 18.65625 -14.9375 C 19.53125 -15.726562 19.96875 -16.875 19.96875 -18.375 C 19.96875 -19.84375 19.53125 -20.957031 18.65625 -21.71875 C 17.789062 -22.476562 16.550781 -22.859375 14.9375 -22.859375 Z M 10.125 -22.859375 "/></g></g></g><g fill="#ffffff" fill-opacity="1"><g transform="translate(225.187076, 71.038447)"><g><path d="M 25.234375 -22.859375 L 10.125 -22.859375 L 10.125 -17.1875 L 23.765625 -17.1875 L 23.765625 -11.46875 L 10.125 -11.46875 L 10.125 -5.71875 L 25.6875 -5.71875 L 25.6875 0 L 2.859375 0 L 2.859375 -28.578125 L 25.234375 -28.578125 Z M 25.234375 -22.859375 "/></g></g></g><g fill="#ffffff" fill-opacity="1"><g transform="translate(252.695821, 71.038447)"><g><path d="M 29.234375 0 L 22.828125 0 L 9.671875 -17.59375 L 9.671875 0 L 2.859375 0 L 2.859375 -28.578125 L 9.265625 -28.578125 L 22.453125 -10.9375 L 22.453125 -28.578125 L 29.234375 -28.578125 Z M 29.234375 0 "/></g></g></g><g fill="#ffffff" fill-opacity="1"><g transform="translate(284.775759, 71.038447)"><g><path d="M 13.84375 -28.90625 C 18.113281 -28.90625 21.867188 -27.84375 25.109375 -25.71875 L 22.375 -20.046875 C 20.875 -20.921875 19.265625 -21.632812 17.546875 -22.1875 C 15.835938 -22.75 14.398438 -23.03125 13.234375 -23.03125 C 11.128906 -23.03125 10.078125 -22.332031 10.078125 -20.9375 C 10.078125 -20.039062 10.59375 -19.320312 11.625 -18.78125 C 12.664062 -18.238281 13.925781 -17.769531 15.40625 -17.375 C 16.894531 -16.976562 18.378906 -16.5 19.859375 -15.9375 C 21.347656 -15.382812 22.609375 -14.476562 23.640625 -13.21875 C 24.671875 -11.96875 25.1875 -10.394531 25.1875 -8.5 C 25.1875 -5.75 24.109375 -3.601562 21.953125 -2.0625 C 19.804688 -0.519531 17.078125 0.25 13.765625 0.25 C 11.390625 0.25 9.046875 -0.15625 6.734375 -0.96875 C 4.421875 -1.789062 2.40625 -2.910156 0.6875 -4.328125 L 3.515625 -9.921875 C 4.953125 -8.671875 6.648438 -7.644531 8.609375 -6.84375 C 10.566406 -6.039062 12.3125 -5.640625 13.84375 -5.640625 C 15.007812 -5.640625 15.921875 -5.847656 16.578125 -6.265625 C 17.234375 -6.691406 17.5625 -7.3125 17.5625 -8.125 C 17.5625 -8.914062 17.1875 -9.578125 16.4375 -10.109375 C 15.6875 -10.640625 14.753906 -11.03125 13.640625 -11.28125 C 12.523438 -11.539062 11.3125 -11.890625 10 -12.328125 C 8.695312 -12.765625 7.484375 -13.238281 6.359375 -13.75 C 5.242188 -14.269531 4.3125 -15.09375 3.5625 -16.21875 C 2.820312 -17.351562 2.453125 -18.710938 2.453125 -20.296875 C 2.453125 -22.910156 3.492188 -25 5.578125 -26.5625 C 7.660156 -28.125 10.414062 -28.90625 13.84375 -28.90625 Z M 13.84375 -28.90625 "/></g></g></g><g fill="#ffffff" fill-opacity="1"><g transform="translate(311.060087, 71.038447)"><g><path d="M 25.234375 -22.859375 L 10.125 -22.859375 L 10.125 -17.1875 L 23.765625 -17.1875 L 23.765625 -11.46875 L 10.125 -11.46875 L 10.125 -5.71875 L 25.6875 -5.71875 L 25.6875 0 L 2.859375 0 L 2.859375 -28.578125 L 25.234375 -28.578125 Z M 25.234375 -22.859375 "/></g></g></g><g fill="#ffffff" fill-opacity="1"><g transform="translate(338.568832, 71.038447)"><g/></g></g><g fill="#ffffff" fill-opacity="1"><g transform="translate(348.037716, 71.038447)"><g><path d="M 16.25 -28.828125 C 18.375 -28.828125 20.460938 -28.390625 22.515625 -27.515625 C 24.566406 -26.648438 26.316406 -25.476562 27.765625 -24 L 23.5625 -19.03125 C 22.632812 -20.164062 21.523438 -21.066406 20.234375 -21.734375 C 18.941406 -22.398438 17.65625 -22.734375 16.375 -22.734375 C 14.113281 -22.734375 12.21875 -21.9375 10.6875 -20.34375 C 9.164062 -18.757812 8.40625 -16.796875 8.40625 -14.453125 C 8.40625 -12.054688 9.164062 -10.054688 10.6875 -8.453125 C 12.21875 -6.847656 14.113281 -6.046875 16.375 -6.046875 C 17.570312 -6.046875 18.816406 -6.34375 20.109375 -6.9375 C 21.398438 -7.539062 22.550781 -8.359375 23.5625 -9.390625 L 27.796875 -4.90625 C 26.253906 -3.320312 24.425781 -2.050781 22.3125 -1.09375 C 20.207031 -0.144531 18.101562 0.328125 16 0.328125 C 11.695312 0.328125 8.117188 -1.070312 5.265625 -3.875 C 2.410156 -6.675781 0.984375 -10.175781 0.984375 -14.375 C 0.984375 -18.476562 2.4375 -21.910156 5.34375 -24.671875 C 8.257812 -27.441406 11.894531 -28.828125 16.25 -28.828125 Z M 16.25 -28.828125 "/></g></g></g><g fill="#ffffff" fill-opacity="1"><g transform="translate(376.281119, 71.038447)"><g><path d="M 16.40625 -28.828125 C 20.84375 -28.828125 24.53125 -27.441406 27.46875 -24.671875 C 30.414062 -21.910156 31.890625 -18.460938 31.890625 -14.328125 C 31.890625 -10.160156 30.410156 -6.675781 27.453125 -3.875 C 24.503906 -1.070312 20.820312 0.328125 16.40625 0.328125 C 12 0.328125 8.328125 -1.066406 5.390625 -3.859375 C 2.453125 -6.648438 0.984375 -10.140625 0.984375 -14.328125 C 0.984375 -18.492188 2.453125 -21.953125 5.390625 -24.703125 C 8.328125 -27.453125 12 -28.828125 16.40625 -28.828125 Z M 16.5 -22.734375 C 14.257812 -22.734375 12.347656 -21.921875 10.765625 -20.296875 C 9.191406 -18.679688 8.40625 -16.675781 8.40625 -14.28125 C 8.40625 -11.894531 9.203125 -9.875 10.796875 -8.21875 C 12.390625 -6.570312 14.285156 -5.75 16.484375 -5.75 C 18.691406 -5.75 20.566406 -6.570312 22.109375 -8.21875 C 23.648438 -9.875 24.421875 -11.894531 24.421875 -14.28125 C 24.421875 -16.675781 23.648438 -18.679688 22.109375 -20.296875 C 20.566406 -21.921875 18.695312 -22.734375 16.5 -22.734375 Z M 16.5 -22.734375 "/></g></g></g><g fill="#ffffff" fill-opacity="1"><g transform="translate(409.136526, 71.038447)"><g><path d="M 29.234375 0 L 22.828125 0 L 9.671875 -17.59375 L 9.671875 0 L 2.859375 0 L 2.859375 -28.578125 L 9.265625 -28.578125 L 22.453125 -10.9375 L 22.453125 -28.578125 L 29.234375 -28.578125 Z M 29.234375 0 "/></g></g></g><g fill="#ffffff" fill-opacity="1"><g transform="translate(441.216453, 71.038447)"><g><path d="M 24.703125 -22.734375 L 16.09375 -22.734375 L 16.09375 0 L 8.8125 0 L 8.8125 -22.734375 L 0.28125 -22.734375 L 0.28125 -28.625 L 24.703125 -28.625 Z M 24.703125 -22.734375 "/></g></g></g><g fill="#ffffff" fill-opacity="1"><g transform="translate(466.153915, 71.038447)"><g><path d="M 20.09375 0 L 15.84375 -8.046875 L 10.125 -8.046875 L 10.125 0 L 2.859375 0 L 2.859375 -28.578125 L 15.640625 -28.578125 C 19.421875 -28.578125 22.34375 -27.710938 24.40625 -25.984375 C 26.476562 -24.253906 27.515625 -21.800781 27.515625 -18.625 C 27.515625 -14.207031 25.785156 -11.144531 22.328125 -9.4375 L 28.328125 0 Z M 10.125 -13.765625 L 15.640625 -13.765625 C 17.210938 -13.765625 18.4375 -14.15625 19.3125 -14.9375 C 20.1875 -15.726562 20.625 -16.875 20.625 -18.375 C 20.625 -19.84375 20.1875 -20.957031 19.3125 -21.71875 C 18.4375 -22.476562 17.210938 -22.859375 15.640625 -22.859375 L 10.125 -22.859375 Z M 10.125 -13.765625 "/></g></g></g><g fill="#ffffff" fill-opacity="1"><g transform="translate(495.70336, 71.038447)"><g><path d="M 16.40625 -28.828125 C 20.84375 -28.828125 24.53125 -27.441406 27.46875 -24.671875 C 30.414062 -21.910156 31.890625 -18.460938 31.890625 -14.328125 C 31.890625 -10.160156 30.410156 -6.675781 27.453125 -3.875 C 24.503906 -1.070312 20.820312 0.328125 16.40625 0.328125 C 12 0.328125 8.328125 -1.066406 5.390625 -3.859375 C 2.453125 -6.648438 0.984375 -10.140625 0.984375 -14.328125 C 0.984375 -18.492188 2.453125 -21.953125 5.390625 -24.703125 C 8.328125 -27.453125 12 -28.828125 16.40625 -28.828125 Z M 16.5 -22.734375 C 14.257812 -22.734375 12.347656 -21.921875 10.765625 -20.296875 C 9.191406 -18.679688 8.40625 -16.675781 8.40625 -14.28125 C 8.40625 -11.894531 9.203125 -9.875 10.796875 -8.21875 C 12.390625 -6.570312 14.285156 -5.75 16.484375 -5.75 C 18.691406 -5.75 20.566406 -6.570312 22.109375 -8.21875 C 23.648438 -9.875 24.421875 -11.894531 24.421875 -14.28125 C 24.421875 -16.675781 23.648438 -18.679688 22.109375 -20.296875 C 20.566406 -21.921875 18.695312 -22.734375 16.5 -22.734375 Z M 16.5 -22.734375 "/></g></g></g><g fill="#ffffff" fill-opacity="1"><g transform="translate(528.558746, 71.038447)"><g><path d="M 10.125 -6.078125 L 22.25 -6.078125 L 22.25 0 L 2.859375 0 L 2.859375 -28.578125 L 10.125 -28.578125 Z M 10.125 -6.078125 "/></g></g></g></svg>