<svg xmlns="http://www.w3.org/2000/svg" xmlns:xlink="http://www.w3.org/1999/xlink" width="750" zoomAndPan="magnify" viewBox="0 0 562.5 110.999996" height="148" preserveAspectRatio="xMidYMid meet" version="1.0"><defs><filter x="0%" y="0%" width="100%" height="100%" id="d71964e209"><feColorMatrix values="0 0 0 0 1 0 0 0 0 1 0 0 0 0 1 0 0 0 1 0" color-interpolation-filters="sRGB"/></filter><g/><clipPath id="6b5702a417"><path d="M 0 0.0507812 L 80 0.0507812 L 80 81 L 0 81 Z M 0 0.0507812 " clip-rule="nonzero"/></clipPath><mask id="4505da8420"><g filter="url(#d71964e209)"><rect x="-56.25" width="675" fill="#000000" y="-11.1" height="133.199995" fill-opacity="0.6"/></g></mask><clipPath id="30c79e390b"><path d="M 0 0.0507812 L 79.769531 0.0507812 L 79.769531 80.167969 L 0 80.167969 Z M 0 0.0507812 " clip-rule="nonzero"/></clipPath><clipPath id="fe4dc876dd"><path d="M 8.648438 0.0507812 L 70.769531 0.0507812 C 73.15625 0.0507812 75.445312 0.996094 77.132812 2.683594 C 78.820312 4.375 79.769531 6.664062 79.769531 9.050781 L 79.769531 71.167969 C 79.769531 73.554688 78.820312 75.84375 77.132812 77.53125 C 75.445312 79.21875 73.15625 80.167969 70.769531 80.167969 L 8.648438 80.167969 C 6.261719 80.167969 3.972656 79.21875 2.285156 77.53125 C 0.597656 75.84375 -0.351562 73.554688 -0.351562 71.167969 L -0.351562 9.050781 C -0.351562 6.664062 0.597656 4.375 2.285156 2.683594 C 3.972656 0.996094 6.261719 0.0507812 8.648438 0.0507812 " clip-rule="nonzero"/></clipPath><clipPath id="ed371c9373"><rect x="0" width="80" y="0" height="81"/></clipPath><mask id="5f6ff90959"><g filter="url(#d71964e209)"><rect x="-56.25" width="675" fill="#000000" y="-11.1" height="133.199995" fill-opacity="0.698"/></g></mask><clipPath id="a0f631797f"><path d="M 0.3125 0.988281 L 80.433594 0.988281 L 80.433594 81.105469 L 0.3125 81.105469 Z M 0.3125 0.988281 " clip-rule="nonzero"/></clipPath><clipPath id="ccf39e8c0f"><path d="M 9.3125 0.988281 L 71.433594 0.988281 C 73.820312 0.988281 76.109375 1.933594 77.796875 3.621094 C 79.484375 5.308594 80.433594 7.597656 80.433594 9.988281 L 80.433594 72.105469 C 80.433594 74.492188 79.484375 76.78125 77.796875 78.46875 C 76.109375 80.15625 73.820312 81.105469 71.433594 81.105469 L 9.3125 81.105469 C 6.925781 81.105469 4.636719 80.15625 2.949219 78.46875 C 1.261719 76.78125 0.3125 74.492188 0.3125 72.105469 L 0.3125 9.988281 C 0.3125 7.597656 1.261719 5.308594 2.949219 3.621094 C 4.636719 1.933594 6.925781 0.988281 9.3125 0.988281 " clip-rule="nonzero"/></clipPath><clipPath id="ded396626d"><rect x="0" width="81" y="0" height="82"/></clipPath><clipPath id="3523a6fadc"><path d="M 29 30 L 111 30 L 111 110.949219 L 29 110.949219 Z M 29 30 " clip-rule="nonzero"/></clipPath><mask id="66cbf76ef8"><g filter="url(#d71964e209)"><rect x="-56.25" width="675" fill="#000000" y="-11.1" height="133.199995" fill-opacity="0.898"/></g></mask><clipPath id="1542cf23a0"><path d="M 1.015625 0.625 L 81.132812 0.625 L 81.132812 80.746094 L 1.015625 80.746094 Z M 1.015625 0.625 " clip-rule="nonzero"/></clipPath><clipPath id="34ed5a8536"><path d="M 10.015625 0.625 L 72.132812 0.625 C 74.523438 0.625 76.8125 1.574219 78.5 3.261719 C 80.1875 4.949219 81.132812 7.238281 81.132812 9.625 L 81.132812 71.746094 C 81.132812 74.132812 80.1875 76.421875 78.5 78.109375 C 76.8125 79.796875 74.523438 80.746094 72.132812 80.746094 L 10.015625 80.746094 C 7.628906 80.746094 5.339844 79.796875 3.652344 78.109375 C 1.964844 76.421875 1.015625 74.132812 1.015625 71.746094 L 1.015625 9.625 C 1.015625 7.238281 1.964844 4.949219 3.652344 3.261719 C 5.339844 1.574219 7.628906 0.625 10.015625 0.625 " clip-rule="nonzero"/></clipPath><clipPath id="b221b1cb0a"><rect x="0" width="82" y="0" height="81"/></clipPath></defs><g clip-path="url(#6b5702a417)"><g mask="url(#4505da8420)"><g transform="matrix(1, 0, 0, 1, 0, 0.000000000000011872)"><g clip-path="url(#ed371c9373)"><g clip-path="url(#30c79e390b)"><g clip-path="url(#fe4dc876dd)"><path fill="#5b21b6" d="M -0.351562 0.0507812 L 79.769531 0.0507812 L 79.769531 80.167969 L -0.351562 80.167969 Z M -0.351562 0.0507812 " fill-opacity="1" fill-rule="nonzero"/></g></g></g></g></g></g><g mask="url(#5f6ff90959)"><g transform="matrix(1, 0, 0, 1, 13, 13)"><g clip-path="url(#ded396626d)"><g clip-path="url(#a0f631797f)"><g clip-path="url(#ccf39e8c0f)"><path fill="#5b21b6" d="M 0.3125 0.988281 L 80.433594 0.988281 L 80.433594 81.105469 L 0.3125 81.105469 Z M 0.3125 0.988281 " fill-opacity="1" fill-rule="nonzero"/></g></g></g></g></g><g clip-path="url(#3523a6fadc)"><g mask="url(#66cbf76ef8)"><g transform="matrix(1, 0, 0, 1, 29, 30)"><g clip-path="url(#b221b1cb0a)"><g clip-path="url(#1542cf23a0)"><g clip-path="url(#34ed5a8536)"><path fill="#5b21b6" d="M 1.015625 0.625 L 81.132812 0.625 L 81.132812 80.746094 L 1.015625 80.746094 Z M 1.015625 0.625 " fill-opacity="1" fill-rule="nonzero"/></g></g></g></g></g></g><g fill="#000000" fill-opacity="1"><g transform="translate(139.7035, 71.013661)"><g><path d="M 25.234375 -22.875 L 10.125 -22.875 L 10.125 -17.1875 L 23.765625 -17.1875 L 23.765625 -11.484375 L 10.125 -11.484375 L 10.125 -5.71875 L 25.6875 -5.71875 L 25.6875 0 L 2.859375 0 L 2.859375 -28.59375 L 25.234375 -28.59375 Z M 25.234375 -22.875 "/></g></g></g><g fill="#000000" fill-opacity="1"><g transform="translate(167.229417, 71.013661)"><g><path d="M 19.4375 -14.953125 L 29.6875 0 L 21 0 L 14.828125 -9.109375 L 8.65625 0 L 0.203125 0 L 10.421875 -14.625 L 0.859375 -28.59375 L 9.3125 -28.59375 L 14.828125 -20.265625 L 20.34375 -28.59375 L 28.875 -28.59375 Z M 19.4375 -14.953125 "/></g></g></g><g fill="#000000" fill-opacity="1"><g transform="translate(197.205719, 71.013661)"><g><path d="M 2.859375 -28.59375 L 15.3125 -28.59375 C 18.96875 -28.59375 21.800781 -27.726562 23.8125 -26 C 25.820312 -24.269531 26.828125 -21.8125 26.828125 -18.625 C 26.828125 -15.269531 25.820312 -12.664062 23.8125 -10.8125 C 21.800781 -8.96875 18.96875 -8.046875 15.3125 -8.046875 L 10.125 -8.046875 L 10.125 0 L 2.859375 0 Z M 10.125 -22.875 L 10.125 -13.765625 L 14.953125 -13.765625 C 16.554688 -13.765625 17.789062 -14.160156 18.65625 -14.953125 C 19.53125 -15.742188 19.96875 -16.882812 19.96875 -18.375 C 19.96875 -19.84375 19.53125 -20.957031 18.65625 -21.71875 C 17.789062 -22.488281 16.554688 -22.875 14.953125 -22.875 Z M 10.125 -22.875 "/></g></g></g><g fill="#000000" fill-opacity="1"><g transform="translate(224.976674, 71.013661)"><g><path d="M 25.234375 -22.875 L 10.125 -22.875 L 10.125 -17.1875 L 23.765625 -17.1875 L 23.765625 -11.484375 L 10.125 -11.484375 L 10.125 -5.71875 L 25.6875 -5.71875 L 25.6875 0 L 2.859375 0 L 2.859375 -28.59375 L 25.234375 -28.59375 Z M 25.234375 -22.875 "/></g></g></g><g fill="#000000" fill-opacity="1"><g transform="translate(252.502591, 71.013661)"><g><path d="M 29.25 0 L 22.828125 0 L 9.6875 -17.609375 L 9.6875 0 L 2.859375 0 L 2.859375 -28.59375 L 9.265625 -28.59375 L 22.46875 -10.953125 L 22.46875 -28.59375 L 29.25 -28.59375 Z M 29.25 0 "/></g></g></g><g fill="#000000" fill-opacity="1"><g transform="translate(284.602554, 71.013661)"><g><path d="M 13.84375 -28.921875 C 18.125 -28.921875 21.882812 -27.859375 25.125 -25.734375 L 22.375 -20.046875 C 20.882812 -20.921875 19.28125 -21.632812 17.5625 -22.1875 C 15.84375 -22.75 14.398438 -23.03125 13.234375 -23.03125 C 11.140625 -23.03125 10.09375 -22.335938 10.09375 -20.953125 C 10.09375 -20.054688 10.609375 -19.332031 11.640625 -18.78125 C 12.671875 -18.238281 13.925781 -17.769531 15.40625 -17.375 C 16.894531 -16.976562 18.378906 -16.5 19.859375 -15.9375 C 21.347656 -15.382812 22.609375 -14.484375 23.640625 -13.234375 C 24.679688 -11.984375 25.203125 -10.40625 25.203125 -8.5 C 25.203125 -5.75 24.125 -3.601562 21.96875 -2.0625 C 19.820312 -0.519531 17.085938 0.25 13.765625 0.25 C 11.390625 0.25 9.046875 -0.15625 6.734375 -0.96875 C 4.421875 -1.789062 2.40625 -2.910156 0.6875 -4.328125 L 3.515625 -9.921875 C 4.953125 -8.671875 6.648438 -7.644531 8.609375 -6.84375 C 10.578125 -6.039062 12.320312 -5.640625 13.84375 -5.640625 C 15.019531 -5.640625 15.929688 -5.847656 16.578125 -6.265625 C 17.234375 -6.691406 17.5625 -7.3125 17.5625 -8.125 C 17.5625 -8.914062 17.1875 -9.578125 16.4375 -10.109375 C 15.6875 -10.640625 14.753906 -11.035156 13.640625 -11.296875 C 12.523438 -11.554688 11.3125 -11.898438 10 -12.328125 C 8.695312 -12.765625 7.488281 -13.242188 6.375 -13.765625 C 5.257812 -14.285156 4.328125 -15.109375 3.578125 -16.234375 C 2.828125 -17.367188 2.453125 -18.722656 2.453125 -20.296875 C 2.453125 -22.910156 3.492188 -25 5.578125 -26.5625 C 7.660156 -28.132812 10.414062 -28.921875 13.84375 -28.921875 Z M 13.84375 -28.921875 "/></g></g></g><g fill="#000000" fill-opacity="1"><g transform="translate(310.903289, 71.013661)"><g><path d="M 25.234375 -22.875 L 10.125 -22.875 L 10.125 -17.1875 L 23.765625 -17.1875 L 23.765625 -11.484375 L 10.125 -11.484375 L 10.125 -5.71875 L 25.6875 -5.71875 L 25.6875 0 L 2.859375 0 L 2.859375 -28.59375 L 25.234375 -28.59375 Z M 25.234375 -22.875 "/></g></g></g><g fill="#000000" fill-opacity="1"><g transform="translate(338.429206, 71.013661)"><g/></g></g><g fill="#000000" fill-opacity="1"><g transform="translate(347.904001, 71.013661)"><g><path d="M 16.25 -28.828125 C 18.375 -28.828125 20.460938 -28.390625 22.515625 -27.515625 C 24.578125 -26.648438 26.332031 -25.484375 27.78125 -24.015625 L 23.5625 -19.03125 C 22.632812 -20.175781 21.523438 -21.082031 20.234375 -21.75 C 18.941406 -22.414062 17.65625 -22.75 16.375 -22.75 C 14.113281 -22.75 12.21875 -21.953125 10.6875 -20.359375 C 9.164062 -18.765625 8.40625 -16.796875 8.40625 -14.453125 C 8.40625 -12.054688 9.164062 -10.054688 10.6875 -8.453125 C 12.21875 -6.847656 14.113281 -6.046875 16.375 -6.046875 C 17.570312 -6.046875 18.816406 -6.34375 20.109375 -6.9375 C 21.410156 -7.539062 22.5625 -8.359375 23.5625 -9.390625 L 27.8125 -4.90625 C 26.257812 -3.320312 24.425781 -2.050781 22.3125 -1.09375 C 20.207031 -0.144531 18.109375 0.328125 16.015625 0.328125 C 11.710938 0.328125 8.128906 -1.070312 5.265625 -3.875 C 2.410156 -6.6875 0.984375 -10.1875 0.984375 -14.375 C 0.984375 -18.488281 2.4375 -21.925781 5.34375 -24.6875 C 8.257812 -27.445312 11.894531 -28.828125 16.25 -28.828125 Z M 16.25 -28.828125 "/></g></g></g><g fill="#000000" fill-opacity="1"><g transform="translate(376.165033, 71.013661)"><g><path d="M 16.421875 -28.828125 C 20.859375 -28.828125 24.546875 -27.445312 27.484375 -24.6875 C 30.429688 -21.925781 31.90625 -18.476562 31.90625 -14.34375 C 31.90625 -10.175781 30.425781 -6.6875 27.46875 -3.875 C 24.507812 -1.070312 20.820312 0.328125 16.40625 0.328125 C 12 0.328125 8.328125 -1.066406 5.390625 -3.859375 C 2.453125 -6.648438 0.984375 -10.144531 0.984375 -14.34375 C 0.984375 -18.5 2.453125 -21.953125 5.390625 -24.703125 C 8.328125 -27.453125 12.003906 -28.828125 16.421875 -28.828125 Z M 16.5 -22.75 C 14.269531 -22.75 12.363281 -21.9375 10.78125 -20.3125 C 9.195312 -18.695312 8.40625 -16.691406 8.40625 -14.296875 C 8.40625 -11.898438 9.203125 -9.878906 10.796875 -8.234375 C 12.390625 -6.585938 14.289062 -5.765625 16.5 -5.765625 C 18.707031 -5.765625 20.578125 -6.585938 22.109375 -8.234375 C 23.648438 -9.878906 24.421875 -11.898438 24.421875 -14.296875 C 24.421875 -16.691406 23.648438 -18.695312 22.109375 -20.3125 C 20.578125 -21.9375 18.707031 -22.75 16.5 -22.75 Z M 16.5 -22.75 "/></g></g></g><g fill="#000000" fill-opacity="1"><g transform="translate(409.04095, 71.013661)"><g><path d="M 29.25 0 L 22.828125 0 L 9.6875 -17.609375 L 9.6875 0 L 2.859375 0 L 2.859375 -28.59375 L 9.265625 -28.59375 L 22.46875 -10.953125 L 22.46875 -28.59375 L 29.25 -28.59375 Z M 29.25 0 "/></g></g></g><g fill="#000000" fill-opacity="1"><g transform="translate(441.140902, 71.013661)"><g><path d="M 24.703125 -22.75 L 16.09375 -22.75 L 16.09375 0 L 8.828125 0 L 8.828125 -22.75 L 0.28125 -22.75 L 0.28125 -28.625 L 24.703125 -28.625 Z M 24.703125 -22.75 "/></g></g></g><g fill="#000000" fill-opacity="1"><g transform="translate(466.09393, 71.013661)"><g><path d="M 20.09375 0 L 15.84375 -8.046875 L 10.125 -8.046875 L 10.125 0 L 2.859375 0 L 2.859375 -28.59375 L 15.640625 -28.59375 C 19.429688 -28.59375 22.359375 -27.726562 24.421875 -26 C 26.492188 -24.269531 27.53125 -21.8125 27.53125 -18.625 C 27.53125 -14.21875 25.800781 -11.15625 22.34375 -9.4375 L 28.34375 0 Z M 10.125 -13.765625 L 15.640625 -13.765625 C 17.222656 -13.765625 18.445312 -14.160156 19.3125 -14.953125 C 20.1875 -15.742188 20.625 -16.882812 20.625 -18.375 C 20.625 -19.84375 20.1875 -20.957031 19.3125 -21.71875 C 18.445312 -22.488281 17.222656 -22.875 15.640625 -22.875 L 10.125 -22.875 Z M 10.125 -13.765625 "/></g></g></g><g fill="#000000" fill-opacity="1"><g transform="translate(495.661821, 71.013661)"><g><path d="M 16.421875 -28.828125 C 20.859375 -28.828125 24.546875 -27.445312 27.484375 -24.6875 C 30.429688 -21.925781 31.90625 -18.476562 31.90625 -14.34375 C 31.90625 -10.175781 30.425781 -6.6875 27.46875 -3.875 C 24.507812 -1.070312 20.820312 0.328125 16.40625 0.328125 C 12 0.328125 8.328125 -1.066406 5.390625 -3.859375 C 2.453125 -6.648438 0.984375 -10.144531 0.984375 -14.34375 C 0.984375 -18.5 2.453125 -21.953125 5.390625 -24.703125 C 8.328125 -27.453125 12.003906 -28.828125 16.421875 -28.828125 Z M 16.5 -22.75 C 14.269531 -22.75 12.363281 -21.9375 10.78125 -20.3125 C 9.195312 -18.695312 8.40625 -16.691406 8.40625 -14.296875 C 8.40625 -11.898438 9.203125 -9.878906 10.796875 -8.234375 C 12.390625 -6.585938 14.289062 -5.765625 16.5 -5.765625 C 18.707031 -5.765625 20.578125 -6.585938 22.109375 -8.234375 C 23.648438 -9.878906 24.421875 -11.898438 24.421875 -14.296875 C 24.421875 -16.691406 23.648438 -18.695312 22.109375 -20.3125 C 20.578125 -21.9375 18.707031 -22.75 16.5 -22.75 Z M 16.5 -22.75 "/></g></g></g><g fill="#000000" fill-opacity="1"><g transform="translate(528.537716, 71.013661)"><g><path d="M 10.125 -6.078125 L 22.265625 -6.078125 L 22.265625 0 L 2.859375 0 L 2.859375 -28.59375 L 10.125 -28.59375 Z M 10.125 -6.078125 "/></g></g></g></svg>