<svg xmlns="http://www.w3.org/2000/svg" xmlns:xlink="http://www.w3.org/1999/xlink" width="500" zoomAndPan="magnify" viewBox="0 0 375 374.999991" height="500" preserveAspectRatio="xMidYMid meet" version="1.0"><defs><filter x="0%" y="0%" width="100%" height="100%" id="676effbd28"><feColorMatrix values="0 0 0 0 1 0 0 0 0 1 0 0 0 0 1 0 0 0 1 0" color-interpolation-filters="sRGB"/></filter><g/><mask id="5c03eb9318"><g filter="url(#676effbd28)"><rect x="-37.5" width="450" fill="#000000" y="-37.499999" height="449.999989" fill-opacity="0.4"/></g></mask><clipPath id="e7e59a6968"><path d="M 0 0.5625 L 54.917969 0.5625 L 54.917969 55.480469 L 0 55.480469 Z M 0 0.5625 " clip-rule="nonzero"/></clipPath><clipPath id="af6c6c5edc"><path d="M 9 0.5625 L 45.917969 0.5625 C 50.886719 0.5625 54.917969 4.589844 54.917969 9.5625 L 54.917969 46.480469 C 54.917969 51.449219 50.886719 55.480469 45.917969 55.480469 L 9 55.480469 C 4.03125 55.480469 0 51.449219 0 46.480469 L 0 9.5625 C 0 4.589844 4.03125 0.5625 9 0.5625 " clip-rule="nonzero"/></clipPath><clipPath id="a505532181"><rect x="0" width="55" y="0" height="56"/></clipPath><mask id="ad643dfe48"><g filter="url(#676effbd28)"><rect x="-37.5" width="450" fill="#000000" y="-37.499999" height="449.999989" fill-opacity="0.498"/></g></mask><clipPath id="42e1764497"><path d="M 0.367188 1.113281 L 55.285156 1.113281 L 55.285156 56.03125 L 0.367188 56.03125 Z M 0.367188 1.113281 " clip-rule="nonzero"/></clipPath><clipPath id="d6e92a27b8"><path d="M 9.367188 1.113281 L 46.285156 1.113281 C 51.253906 1.113281 55.285156 5.144531 55.285156 10.113281 L 55.285156 47.03125 C 55.285156 52.003906 51.253906 56.03125 46.285156 56.03125 L 9.367188 56.03125 C 4.394531 56.03125 0.367188 52.003906 0.367188 47.03125 L 0.367188 10.113281 C 0.367188 5.144531 4.394531 1.113281 9.367188 1.113281 " clip-rule="nonzero"/></clipPath><clipPath id="b8aafbd9f0"><rect x="0" width="56" y="0" height="57"/></clipPath><mask id="8ca8b7d372"><g filter="url(#676effbd28)"><rect x="-37.5" width="450" fill="#000000" y="-37.499999" height="449.999989" fill-opacity="0.698"/></g></mask><clipPath id="4f8a009c22"><path d="M 0.816406 0.519531 L 55.730469 0.519531 L 55.730469 55.4375 L 0.816406 55.4375 Z M 0.816406 0.519531 " clip-rule="nonzero"/></clipPath><clipPath id="0fa2cfa241"><path d="M 9.816406 0.519531 L 46.730469 0.519531 C 51.703125 0.519531 55.730469 4.550781 55.730469 9.519531 L 55.730469 46.4375 C 55.730469 51.410156 51.703125 55.4375 46.730469 55.4375 L 9.816406 55.4375 C 4.84375 55.4375 0.816406 51.410156 0.816406 46.4375 L 0.816406 9.519531 C 0.816406 4.550781 4.84375 0.519531 9.816406 0.519531 " clip-rule="nonzero"/></clipPath><clipPath id="083ee127c1"><rect x="0" width="56" y="0" height="56"/></clipPath></defs><g mask="url(#5c03eb9318)"><g transform="matrix(1, 0, 0, 1, 0, 149)"><g clip-path="url(#a505532181)"><g clip-path="url(#e7e59a6968)"><g clip-path="url(#af6c6c5edc)"><path fill="#4c1d95" d="M 0 0.5625 L 54.917969 0.5625 L 54.917969 55.480469 L 0 55.480469 Z M 0 0.5625 " fill-opacity="1" fill-rule="nonzero"/></g></g></g></g></g><g mask="url(#ad643dfe48)"><g transform="matrix(1, 0, 0, 1, 9, 158)"><g clip-path="url(#b8aafbd9f0)"><g clip-path="url(#42e1764497)"><g clip-path="url(#d6e92a27b8)"><path fill="#4c1d95" d="M 0.367188 1.113281 L 55.285156 1.113281 L 55.285156 56.03125 L 0.367188 56.03125 Z M 0.367188 1.113281 " fill-opacity="1" fill-rule="nonzero"/></g></g></g></g></g><g mask="url(#8ca8b7d372)"><g transform="matrix(1, 0, 0, 1, 20, 170)"><g clip-path="url(#083ee127c1)"><g clip-path="url(#4f8a009c22)"><g clip-path="url(#0fa2cfa241)"><path fill="#4c1d95" d="M 0.816406 0.519531 L 55.730469 0.519531 L 55.730469 55.4375 L 0.816406 55.4375 Z M 0.816406 0.519531 " fill-opacity="1" fill-rule="nonzero"/></g></g></g></g></g><g fill="#ffffff" fill-opacity="1"><g transform="translate(85.385096, 198.499425)"><g><path d="M 17.75 -16.078125 L 7.125 -16.078125 L 7.125 -12.09375 L 16.71875 -12.09375 L 16.71875 -8.0625 L 7.125 -8.0625 L 7.125 -4.015625 L 18.0625 -4.015625 L 18.0625 0 L 2.015625 0 L 2.015625 -20.109375 L 17.75 -20.109375 Z M 17.75 -16.078125 "/></g></g></g><g fill="#ffffff" fill-opacity="1"><g transform="translate(104.744196, 198.499425)"><g><path d="M 13.671875 -10.515625 L 20.875 0 L 14.765625 0 L 10.421875 -6.40625 L 6.09375 0 L 0.140625 0 L 7.328125 -10.28125 L 0.609375 -20.109375 L 6.546875 -20.109375 L 10.421875 -14.25 L 14.296875 -20.109375 L 20.296875 -20.109375 Z M 13.671875 -10.515625 "/></g></g></g><g fill="#ffffff" fill-opacity="1"><g transform="translate(125.826661, 198.499425)"><g><path d="M 2.015625 -20.109375 L 10.765625 -20.109375 C 13.335938 -20.109375 15.332031 -19.5 16.75 -18.28125 C 18.164062 -17.0625 18.875 -15.332031 18.875 -13.09375 C 18.875 -10.738281 18.164062 -8.910156 16.75 -7.609375 C 15.332031 -6.304688 13.335938 -5.65625 10.765625 -5.65625 L 7.125 -5.65625 L 7.125 0 L 2.015625 0 Z M 7.125 -16.078125 L 7.125 -9.671875 L 10.515625 -9.671875 C 11.640625 -9.671875 12.507812 -9.945312 13.125 -10.5 C 13.738281 -11.0625 14.046875 -11.867188 14.046875 -12.921875 C 14.046875 -13.953125 13.738281 -14.734375 13.125 -15.265625 C 12.507812 -15.804688 11.640625 -16.078125 10.515625 -16.078125 Z M 7.125 -16.078125 "/></g></g></g><g fill="#ffffff" fill-opacity="1"><g transform="translate(145.358096, 198.499425)"><g><path d="M 17.75 -16.078125 L 7.125 -16.078125 L 7.125 -12.09375 L 16.71875 -12.09375 L 16.71875 -8.0625 L 7.125 -8.0625 L 7.125 -4.015625 L 18.0625 -4.015625 L 18.0625 0 L 2.015625 0 L 2.015625 -20.109375 L 17.75 -20.109375 Z M 17.75 -16.078125 "/></g></g></g><g fill="#ffffff" fill-opacity="1"><g transform="translate(164.717196, 198.499425)"><g><path d="M 20.5625 0 L 16.046875 0 L 6.8125 -12.375 L 6.8125 0 L 2.015625 0 L 2.015625 -20.109375 L 6.515625 -20.109375 L 15.796875 -7.703125 L 15.796875 -20.109375 L 20.5625 -20.109375 Z M 20.5625 0 "/></g></g></g><g fill="#ffffff" fill-opacity="1"><g transform="translate(187.29324, 198.499425)"><g><path d="M 9.734375 -20.328125 C 12.742188 -20.328125 15.382812 -19.582031 17.65625 -18.09375 L 15.734375 -14.09375 C 14.679688 -14.707031 13.550781 -15.210938 12.34375 -15.609375 C 11.144531 -16.003906 10.132812 -16.203125 9.3125 -16.203125 C 7.832031 -16.203125 7.09375 -15.710938 7.09375 -14.734375 C 7.09375 -14.097656 7.457031 -13.585938 8.1875 -13.203125 C 8.914062 -12.828125 9.800781 -12.5 10.84375 -12.21875 C 11.882812 -11.9375 12.925781 -11.597656 13.96875 -11.203125 C 15.007812 -10.816406 15.894531 -10.179688 16.625 -9.296875 C 17.351562 -8.421875 17.71875 -7.3125 17.71875 -5.96875 C 17.71875 -4.039062 16.960938 -2.535156 15.453125 -1.453125 C 13.941406 -0.367188 12.015625 0.171875 9.671875 0.171875 C 8.003906 0.171875 6.359375 -0.113281 4.734375 -0.6875 C 3.109375 -1.257812 1.691406 -2.046875 0.484375 -3.046875 L 2.46875 -6.984375 C 3.476562 -6.097656 4.671875 -5.375 6.046875 -4.8125 C 7.429688 -4.25 8.660156 -3.96875 9.734375 -3.96875 C 10.554688 -3.96875 11.195312 -4.113281 11.65625 -4.40625 C 12.113281 -4.707031 12.34375 -5.144531 12.34375 -5.71875 C 12.34375 -6.269531 12.078125 -6.734375 11.546875 -7.109375 C 11.023438 -7.484375 10.375 -7.757812 9.59375 -7.9375 C 8.8125 -8.125 7.957031 -8.367188 7.03125 -8.671875 C 6.113281 -8.972656 5.257812 -9.304688 4.46875 -9.671875 C 3.6875 -10.035156 3.03125 -10.613281 2.5 -11.40625 C 1.976562 -12.207031 1.71875 -13.160156 1.71875 -14.265625 C 1.71875 -16.109375 2.445312 -17.578125 3.90625 -18.671875 C 5.375 -19.773438 7.316406 -20.328125 9.734375 -20.328125 Z M 9.734375 -20.328125 "/></g></g></g><g fill="#ffffff" fill-opacity="1"><g transform="translate(205.790656, 198.499425)"><g><path d="M 17.75 -16.078125 L 7.125 -16.078125 L 7.125 -12.09375 L 16.71875 -12.09375 L 16.71875 -8.0625 L 7.125 -8.0625 L 7.125 -4.015625 L 18.0625 -4.015625 L 18.0625 0 L 2.015625 0 L 2.015625 -20.109375 L 17.75 -20.109375 Z M 17.75 -16.078125 "/></g></g></g><g fill="#ffffff" fill-opacity="1"><g transform="translate(225.149756, 198.499425)"><g/></g></g><g fill="#ffffff" fill-opacity="1"><g transform="translate(231.813421, 198.499425)"><g><path d="M 11.4375 -20.28125 C 12.925781 -20.28125 14.390625 -19.972656 15.828125 -19.359375 C 17.273438 -18.742188 18.507812 -17.921875 19.53125 -16.890625 L 16.578125 -13.390625 C 15.921875 -14.191406 15.132812 -14.828125 14.21875 -15.296875 C 13.3125 -15.765625 12.410156 -16 11.515625 -16 C 9.921875 -16 8.585938 -15.4375 7.515625 -14.3125 C 6.453125 -13.195312 5.921875 -11.816406 5.921875 -10.171875 C 5.921875 -8.484375 6.453125 -7.070312 7.515625 -5.9375 C 8.585938 -4.8125 9.921875 -4.25 11.515625 -4.25 C 12.359375 -4.25 13.234375 -4.457031 14.140625 -4.875 C 15.054688 -5.300781 15.867188 -5.878906 16.578125 -6.609375 L 19.5625 -3.453125 C 18.46875 -2.335938 17.175781 -1.441406 15.6875 -0.765625 C 14.207031 -0.0976562 12.726562 0.234375 11.25 0.234375 C 8.226562 0.234375 5.710938 -0.75 3.703125 -2.71875 C 1.691406 -4.695312 0.6875 -7.160156 0.6875 -10.109375 C 0.6875 -13.003906 1.707031 -15.421875 3.75 -17.359375 C 5.800781 -19.304688 8.363281 -20.28125 11.4375 -20.28125 Z M 11.4375 -20.28125 "/></g></g></g><g fill="#ffffff" fill-opacity="1"><g transform="translate(251.68953, 198.499425)"><g><path d="M 11.546875 -20.28125 C 14.660156 -20.28125 17.25 -19.304688 19.3125 -17.359375 C 21.382812 -15.421875 22.421875 -12.992188 22.421875 -10.078125 C 22.421875 -7.148438 21.382812 -4.695312 19.3125 -2.71875 C 17.238281 -0.75 14.648438 0.234375 11.546875 0.234375 C 8.441406 0.234375 5.851562 -0.742188 3.78125 -2.703125 C 1.71875 -4.671875 0.6875 -7.128906 0.6875 -10.078125 C 0.6875 -13.003906 1.71875 -15.4375 3.78125 -17.375 C 5.851562 -19.3125 8.441406 -20.28125 11.546875 -20.28125 Z M 11.609375 -16 C 10.035156 -16 8.691406 -15.425781 7.578125 -14.28125 C 6.472656 -13.144531 5.921875 -11.734375 5.921875 -10.046875 C 5.921875 -8.367188 6.476562 -6.945312 7.59375 -5.78125 C 8.71875 -4.625 10.050781 -4.046875 11.59375 -4.046875 C 13.144531 -4.046875 14.460938 -4.625 15.546875 -5.78125 C 16.628906 -6.945312 17.171875 -8.367188 17.171875 -10.046875 C 17.171875 -11.734375 16.628906 -13.144531 15.546875 -14.28125 C 14.460938 -15.425781 13.148438 -16 11.609375 -16 Z M 11.609375 -16 "/></g></g></g><g fill="#ffffff" fill-opacity="1"><g transform="translate(274.811309, 198.499425)"><g><path d="M 20.5625 0 L 16.046875 0 L 6.8125 -12.375 L 6.8125 0 L 2.015625 0 L 2.015625 -20.109375 L 6.515625 -20.109375 L 15.796875 -7.703125 L 15.796875 -20.109375 L 20.5625 -20.109375 Z M 20.5625 0 "/></g></g></g><g fill="#ffffff" fill-opacity="1"><g transform="translate(297.387342, 198.499425)"><g><path d="M 17.375 -16 L 11.3125 -16 L 11.3125 0 L 6.203125 0 L 6.203125 -16 L 0.203125 -16 L 0.203125 -20.125 L 17.375 -20.125 Z M 17.375 -16 "/></g></g></g><g fill="#ffffff" fill-opacity="1"><g transform="translate(314.936901, 198.499425)"><g><path d="M 14.125 0 L 11.140625 -5.65625 L 7.125 -5.65625 L 7.125 0 L 2.015625 0 L 2.015625 -20.109375 L 11 -20.109375 C 13.65625 -20.109375 15.710938 -19.5 17.171875 -18.28125 C 18.628906 -17.0625 19.359375 -15.332031 19.359375 -13.09375 C 19.359375 -9.988281 18.140625 -7.835938 15.703125 -6.640625 L 19.9375 0 Z M 7.125 -9.671875 L 11 -9.671875 C 12.113281 -9.671875 12.972656 -9.945312 13.578125 -10.5 C 14.191406 -11.0625 14.5 -11.867188 14.5 -12.921875 C 14.5 -13.953125 14.191406 -14.734375 13.578125 -15.265625 C 12.972656 -15.804688 12.113281 -16.078125 11 -16.078125 L 7.125 -16.078125 Z M 7.125 -9.671875 "/></g></g></g><g fill="#ffffff" fill-opacity="1"><g transform="translate(335.732142, 198.499425)"><g><path d="M 11.546875 -20.28125 C 14.660156 -20.28125 17.25 -19.304688 19.3125 -17.359375 C 21.382812 -15.421875 22.421875 -12.992188 22.421875 -10.078125 C 22.421875 -7.148438 21.382812 -4.695312 19.3125 -2.71875 C 17.238281 -0.75 14.648438 0.234375 11.546875 0.234375 C 8.441406 0.234375 5.851562 -0.742188 3.78125 -2.703125 C 1.71875 -4.671875 0.6875 -7.128906 0.6875 -10.078125 C 0.6875 -13.003906 1.71875 -15.4375 3.78125 -17.375 C 5.851562 -19.3125 8.441406 -20.28125 11.546875 -20.28125 Z M 11.609375 -16 C 10.035156 -16 8.691406 -15.425781 7.578125 -14.28125 C 6.472656 -13.144531 5.921875 -11.734375 5.921875 -10.046875 C 5.921875 -8.367188 6.476562 -6.945312 7.59375 -5.78125 C 8.71875 -4.625 10.050781 -4.046875 11.59375 -4.046875 C 13.144531 -4.046875 14.460938 -4.625 15.546875 -5.78125 C 16.628906 -6.945312 17.171875 -8.367188 17.171875 -10.046875 C 17.171875 -11.734375 16.628906 -13.144531 15.546875 -14.28125 C 14.460938 -15.425781 13.148438 -16 11.609375 -16 Z M 11.609375 -16 "/></g></g></g><g fill="#ffffff" fill-opacity="1"><g transform="translate(358.853921, 198.499425)"><g><path d="M 7.125 -4.28125 L 15.65625 -4.28125 L 15.65625 0 L 2.015625 0 L 2.015625 -20.109375 L 7.125 -20.109375 Z M 7.125 -4.28125 "/></g></g></g></svg>