<svg xmlns="http://www.w3.org/2000/svg" xmlns:xlink="http://www.w3.org/1999/xlink" width="800" zoomAndPan="magnify" viewBox="0 0 600 117.749996" height="157" preserveAspectRatio="xMidYMid meet" version="1.0"><defs><filter x="0%" y="0%" width="100%" height="100%" id="a021a1784c"><feColorMatrix values="0 0 0 0 1 0 0 0 0 1 0 0 0 0 1 0 0 0 1 0" color-interpolation-filters="sRGB"/></filter><g/><clipPath id="bf642e8294"><path d="M 0.636719 0 L 86 0 L 86 86 L 0.636719 86 Z M 0.636719 0 " clip-rule="nonzero"/></clipPath><mask id="9822c9df3f"><g filter="url(#a021a1784c)"><rect x="-60" width="720" fill="#000000" y="-11.775" height="141.299995" fill-opacity="0.6"/></g></mask><clipPath id="cacf0e15df"><path d="M 0.636719 0 L 85.863281 0 L 85.863281 84.976562 L 0.636719 84.976562 Z M 0.636719 0 " clip-rule="nonzero"/></clipPath><clipPath id="9c35c6aac9"><path d="M 9.617188 -0.25 L 76.882812 -0.25 C 81.839844 -0.25 85.863281 3.769531 85.863281 8.730469 L 85.863281 75.996094 C 85.863281 80.953125 81.839844 84.976562 76.882812 84.976562 L 9.617188 84.976562 C 4.65625 84.976562 0.636719 80.953125 0.636719 75.996094 L 0.636719 8.730469 C 0.636719 3.769531 4.65625 -0.25 9.617188 -0.25 " clip-rule="nonzero"/></clipPath><clipPath id="e87b60c496"><rect x="0" width="86" y="0" height="86"/></clipPath><mask id="1babfda484"><g filter="url(#a021a1784c)"><rect x="-60" width="720" fill="#000000" y="-11.775" height="141.299995" fill-opacity="0.698"/></g></mask><clipPath id="7fdb494e05"><path d="M 0.171875 0.574219 L 85.398438 0.574219 L 85.398438 85.800781 L 0.171875 85.800781 Z M 0.171875 0.574219 " clip-rule="nonzero"/></clipPath><clipPath id="e7e632ca89"><path d="M 9.152344 0.574219 L 76.417969 0.574219 C 81.378906 0.574219 85.398438 4.59375 85.398438 9.554688 L 85.398438 76.820312 C 85.398438 81.78125 81.378906 85.800781 76.417969 85.800781 L 9.152344 85.800781 C 4.191406 85.800781 0.171875 81.78125 0.171875 76.820312 L 0.171875 9.554688 C 0.171875 4.59375 4.191406 0.574219 9.152344 0.574219 " clip-rule="nonzero"/></clipPath><clipPath id="09ee31bf76"><rect x="0" width="86" y="0" height="86"/></clipPath><clipPath id="720c726f83"><path d="M 32 32 L 119 32 L 119 117.5 L 32 117.5 Z M 32 32 " clip-rule="nonzero"/></clipPath><mask id="2128153d32"><g filter="url(#a021a1784c)"><rect x="-60" width="720" fill="#000000" y="-11.775" height="141.299995" fill-opacity="0.898"/></g></mask><clipPath id="6be9ce8dbc"><path d="M 0.9375 0.273438 L 86.164062 0.273438 L 86.164062 85.5 L 0.9375 85.5 Z M 0.9375 0.273438 " clip-rule="nonzero"/></clipPath><clipPath id="38651a0069"><path d="M 9.917969 0.273438 L 77.183594 0.273438 C 82.144531 0.273438 86.164062 4.296875 86.164062 9.253906 L 86.164062 76.519531 C 86.164062 81.480469 82.144531 85.5 77.183594 85.5 L 9.917969 85.5 C 4.957031 85.5 0.9375 81.480469 0.9375 76.519531 L 0.9375 9.253906 C 0.9375 4.296875 4.957031 0.273438 9.917969 0.273438 " clip-rule="nonzero"/></clipPath><clipPath id="2ce408ceee"><rect x="0" width="87" y="0" height="86"/></clipPath></defs><g clip-path="url(#bf642e8294)"><g mask="url(#9822c9df3f)"><g transform="matrix(1, 0, 0, 1, 0, -0.000000000000000878)"><g clip-path="url(#e87b60c496)"><g clip-path="url(#cacf0e15df)"><g clip-path="url(#9c35c6aac9)"><path fill="#5b21b6" d="M 0.636719 -0.25 L 85.863281 -0.25 L 85.863281 84.976562 L 0.636719 84.976562 Z M 0.636719 -0.25 " fill-opacity="1" fill-rule="nonzero"/></g></g></g></g></g></g><g mask="url(#1babfda484)"><g transform="matrix(1, 0, 0, 1, 15, 14)"><g clip-path="url(#09ee31bf76)"><g clip-path="url(#7fdb494e05)"><g clip-path="url(#e7e632ca89)"><path fill="#5b21b6" d="M 0.171875 0.574219 L 85.398438 0.574219 L 85.398438 85.800781 L 0.171875 85.800781 Z M 0.171875 0.574219 " fill-opacity="1" fill-rule="nonzero"/></g></g></g></g></g><g clip-path="url(#720c726f83)"><g mask="url(#2128153d32)"><g transform="matrix(1, 0, 0, 1, 32, 32)"><g clip-path="url(#2ce408ceee)"><g clip-path="url(#6be9ce8dbc)"><g clip-path="url(#38651a0069)"><path fill="#5b21b6" d="M 0.9375 0.273438 L 86.164062 0.273438 L 86.164062 85.5 L 0.9375 85.5 Z M 0.9375 0.273438 " fill-opacity="1" fill-rule="nonzero"/></g></g></g></g></g></g><g fill="#ffffff" fill-opacity="1"><g transform="translate(149.61752, 75.237027)"><g><path d="M 26.859375 -24.328125 L 10.78125 -24.328125 L 10.78125 -18.296875 L 25.296875 -18.296875 L 25.296875 -12.203125 L 10.78125 -12.203125 L 10.78125 -6.078125 L 27.328125 -6.078125 L 27.328125 0 L 3.046875 0 L 3.046875 -30.421875 L 26.859375 -30.421875 Z M 26.859375 -24.328125 "/></g></g></g><g fill="#ffffff" fill-opacity="1"><g transform="translate(178.898014, 75.237027)"><g><path d="M 20.6875 -15.90625 L 31.59375 0 L 22.328125 0 L 15.78125 -9.6875 L 9.21875 0 L 0.21875 0 L 11.078125 -15.5625 L 0.90625 -30.421875 L 9.90625 -30.421875 L 15.78125 -21.546875 L 21.640625 -30.421875 L 30.71875 -30.421875 Z M 20.6875 -15.90625 "/></g></g></g><g fill="#ffffff" fill-opacity="1"><g transform="translate(210.785087, 75.237027)"><g><path d="M 3.046875 -30.421875 L 16.296875 -30.421875 C 20.179688 -30.421875 23.191406 -29.5 25.328125 -27.65625 C 27.472656 -25.820312 28.546875 -23.207031 28.546875 -19.8125 C 28.546875 -16.25 27.472656 -13.484375 25.328125 -11.515625 C 23.191406 -9.546875 20.179688 -8.5625 16.296875 -8.5625 L 10.78125 -8.5625 L 10.78125 0 L 3.046875 0 Z M 10.78125 -24.328125 L 10.78125 -14.640625 L 15.90625 -14.640625 C 17.613281 -14.640625 18.929688 -15.054688 19.859375 -15.890625 C 20.785156 -16.734375 21.25 -17.953125 21.25 -19.546875 C 21.25 -21.117188 20.785156 -22.304688 19.859375 -23.109375 C 18.929688 -23.921875 17.613281 -24.328125 15.90625 -24.328125 Z M 10.78125 -24.328125 "/></g></g></g><g fill="#ffffff" fill-opacity="1"><g transform="translate(240.326239, 75.237027)"><g><path d="M 26.859375 -24.328125 L 10.78125 -24.328125 L 10.78125 -18.296875 L 25.296875 -18.296875 L 25.296875 -12.203125 L 10.78125 -12.203125 L 10.78125 -6.078125 L 27.328125 -6.078125 L 27.328125 0 L 3.046875 0 L 3.046875 -30.421875 L 26.859375 -30.421875 Z M 26.859375 -24.328125 "/></g></g></g><g fill="#ffffff" fill-opacity="1"><g transform="translate(269.606732, 75.237027)"><g><path d="M 31.109375 0 L 24.296875 0 L 10.296875 -18.734375 L 10.296875 0 L 3.046875 0 L 3.046875 -30.421875 L 9.859375 -30.421875 L 23.90625 -11.640625 L 23.90625 -30.421875 L 31.109375 -30.421875 Z M 31.109375 0 "/></g></g></g><g fill="#ffffff" fill-opacity="1"><g transform="translate(303.752834, 75.237027)"><g><path d="M 14.734375 -30.765625 C 19.273438 -30.765625 23.269531 -29.632812 26.71875 -27.375 L 23.8125 -21.328125 C 22.21875 -22.253906 20.507812 -23.015625 18.6875 -23.609375 C 16.863281 -24.203125 15.328125 -24.5 14.078125 -24.5 C 11.847656 -24.5 10.734375 -23.765625 10.734375 -22.296875 C 10.734375 -21.335938 11.28125 -20.566406 12.375 -19.984375 C 13.476562 -19.410156 14.816406 -18.910156 16.390625 -18.484375 C 17.972656 -18.066406 19.554688 -17.5625 21.140625 -16.96875 C 22.722656 -16.375 24.0625 -15.410156 25.15625 -14.078125 C 26.257812 -12.742188 26.8125 -11.0625 26.8125 -9.03125 C 26.8125 -6.113281 25.664062 -3.832031 23.375 -2.1875 C 21.082031 -0.550781 18.171875 0.265625 14.640625 0.265625 C 12.117188 0.265625 9.625 -0.164062 7.15625 -1.03125 C 4.695312 -1.90625 2.554688 -3.097656 0.734375 -4.609375 L 3.734375 -10.5625 C 5.273438 -9.226562 7.085938 -8.132812 9.171875 -7.28125 C 11.253906 -6.425781 13.109375 -6 14.734375 -6 C 15.972656 -6 16.941406 -6.222656 17.640625 -6.671875 C 18.335938 -7.117188 18.6875 -7.773438 18.6875 -8.640625 C 18.6875 -9.484375 18.285156 -10.1875 17.484375 -10.75 C 16.691406 -11.320312 15.703125 -11.742188 14.515625 -12.015625 C 13.328125 -12.285156 12.035156 -12.648438 10.640625 -13.109375 C 9.253906 -13.578125 7.96875 -14.085938 6.78125 -14.640625 C 5.59375 -15.191406 4.597656 -16.066406 3.796875 -17.265625 C 3.003906 -18.472656 2.609375 -19.914062 2.609375 -21.59375 C 2.609375 -24.375 3.710938 -26.597656 5.921875 -28.265625 C 8.140625 -29.929688 11.078125 -30.765625 14.734375 -30.765625 Z M 14.734375 -30.765625 "/></g></g></g><g fill="#ffffff" fill-opacity="1"><g transform="translate(331.730049, 75.237027)"><g><path d="M 26.859375 -24.328125 L 10.78125 -24.328125 L 10.78125 -18.296875 L 25.296875 -18.296875 L 25.296875 -12.203125 L 10.78125 -12.203125 L 10.78125 -6.078125 L 27.328125 -6.078125 L 27.328125 0 L 3.046875 0 L 3.046875 -30.421875 L 26.859375 -30.421875 Z M 26.859375 -24.328125 "/></g></g></g><g fill="#ffffff" fill-opacity="1"><g transform="translate(361.010543, 75.237027)"><g/></g></g><g fill="#ffffff" fill-opacity="1"><g transform="translate(371.089287, 75.237027)"><g><path d="M 17.296875 -30.671875 C 19.554688 -30.671875 21.78125 -30.207031 23.96875 -29.28125 C 26.15625 -28.351562 28.015625 -27.109375 29.546875 -25.546875 L 25.078125 -20.25 C 24.085938 -21.46875 22.90625 -22.429688 21.53125 -23.140625 C 20.15625 -23.847656 18.785156 -24.203125 17.421875 -24.203125 C 15.015625 -24.203125 13 -23.351562 11.375 -21.65625 C 9.757812 -19.96875 8.953125 -17.875 8.953125 -15.375 C 8.953125 -12.832031 9.757812 -10.707031 11.375 -9 C 13 -7.289062 15.015625 -6.4375 17.421875 -6.4375 C 18.703125 -6.4375 20.03125 -6.753906 21.40625 -7.390625 C 22.78125 -8.023438 24.003906 -8.894531 25.078125 -10 L 29.59375 -5.21875 C 27.9375 -3.53125 25.984375 -2.179688 23.734375 -1.171875 C 21.492188 -0.160156 19.257812 0.34375 17.03125 0.34375 C 12.457031 0.34375 8.648438 -1.144531 5.609375 -4.125 C 2.566406 -7.113281 1.046875 -10.835938 1.046875 -15.296875 C 1.046875 -19.671875 2.59375 -23.328125 5.6875 -26.265625 C 8.789062 -29.203125 12.660156 -30.671875 17.296875 -30.671875 Z M 17.296875 -30.671875 "/></g></g></g><g fill="#ffffff" fill-opacity="1"><g transform="translate(401.151755, 75.237027)"><g><path d="M 17.46875 -30.671875 C 22.1875 -30.671875 26.109375 -29.203125 29.234375 -26.265625 C 32.367188 -23.328125 33.9375 -19.65625 33.9375 -15.25 C 33.9375 -10.820312 32.363281 -7.113281 29.21875 -4.125 C 26.070312 -1.144531 22.148438 0.34375 17.453125 0.34375 C 12.765625 0.34375 8.859375 -1.140625 5.734375 -4.109375 C 2.609375 -7.078125 1.046875 -10.789062 1.046875 -15.25 C 1.046875 -19.6875 2.609375 -23.363281 5.734375 -26.28125 C 8.859375 -29.207031 12.769531 -30.671875 17.46875 -30.671875 Z M 17.5625 -24.203125 C 15.175781 -24.203125 13.144531 -23.335938 11.46875 -21.609375 C 9.789062 -19.890625 8.953125 -17.753906 8.953125 -15.203125 C 8.953125 -12.660156 9.796875 -10.507812 11.484375 -8.75 C 13.179688 -7 15.203125 -6.125 17.546875 -6.125 C 19.898438 -6.125 21.894531 -7 23.53125 -8.75 C 25.164062 -10.507812 25.984375 -12.660156 25.984375 -15.203125 C 25.984375 -17.753906 25.164062 -19.890625 23.53125 -21.609375 C 21.894531 -23.335938 19.90625 -24.203125 17.5625 -24.203125 Z M 17.5625 -24.203125 "/></g></g></g><g fill="#ffffff" fill-opacity="1"><g transform="translate(436.123272, 75.237027)"><g><path d="M 31.109375 0 L 24.296875 0 L 10.296875 -18.734375 L 10.296875 0 L 3.046875 0 L 3.046875 -30.421875 L 9.859375 -30.421875 L 23.90625 -11.640625 L 23.90625 -30.421875 L 31.109375 -30.421875 Z M 31.109375 0 "/></g></g></g><g fill="#ffffff" fill-opacity="1"><g transform="translate(470.269361, 75.237027)"><g><path d="M 26.296875 -24.203125 L 17.125 -24.203125 L 17.125 0 L 9.390625 0 L 9.390625 -24.203125 L 0.296875 -24.203125 L 0.296875 -30.453125 L 26.296875 -30.453125 Z M 26.296875 -24.203125 "/></g></g></g><g fill="#ffffff" fill-opacity="1"><g transform="translate(496.812964, 75.237027)"><g><path d="M 21.375 0 L 16.859375 -8.5625 L 10.78125 -8.5625 L 10.78125 0 L 3.046875 0 L 3.046875 -30.421875 L 16.640625 -30.421875 C 20.671875 -30.421875 23.785156 -29.5 25.984375 -27.65625 C 28.179688 -25.820312 29.28125 -23.207031 29.28125 -19.8125 C 29.28125 -15.125 27.441406 -11.863281 23.765625 -10.03125 L 30.15625 0 Z M 10.78125 -14.640625 L 16.640625 -14.640625 C 18.316406 -14.640625 19.617188 -15.054688 20.546875 -15.890625 C 21.472656 -16.734375 21.9375 -17.953125 21.9375 -19.546875 C 21.9375 -21.117188 21.472656 -22.304688 20.546875 -23.109375 C 19.617188 -23.921875 18.316406 -24.328125 16.640625 -24.328125 L 10.78125 -24.328125 Z M 10.78125 -14.640625 "/></g></g></g><g fill="#ffffff" fill-opacity="1"><g transform="translate(528.265592, 75.237027)"><g><path d="M 17.46875 -30.671875 C 22.1875 -30.671875 26.109375 -29.203125 29.234375 -26.265625 C 32.367188 -23.328125 33.9375 -19.65625 33.9375 -15.25 C 33.9375 -10.820312 32.363281 -7.113281 29.21875 -4.125 C 26.070312 -1.144531 22.148438 0.34375 17.453125 0.34375 C 12.765625 0.34375 8.859375 -1.140625 5.734375 -4.109375 C 2.609375 -7.078125 1.046875 -10.789062 1.046875 -15.25 C 1.046875 -19.6875 2.609375 -23.363281 5.734375 -26.28125 C 8.859375 -29.207031 12.769531 -30.671875 17.46875 -30.671875 Z M 17.5625 -24.203125 C 15.175781 -24.203125 13.144531 -23.335938 11.46875 -21.609375 C 9.789062 -19.890625 8.953125 -17.753906 8.953125 -15.203125 C 8.953125 -12.660156 9.796875 -10.507812 11.484375 -8.75 C 13.179688 -7 15.203125 -6.125 17.546875 -6.125 C 19.898438 -6.125 21.894531 -7 23.53125 -8.75 C 25.164062 -10.507812 25.984375 -12.660156 25.984375 -15.203125 C 25.984375 -17.753906 25.164062 -19.890625 23.53125 -21.609375 C 21.894531 -23.335938 19.90625 -24.203125 17.5625 -24.203125 Z M 17.5625 -24.203125 "/></g></g></g><g fill="#ffffff" fill-opacity="1"><g transform="translate(563.237086, 75.237027)"><g><path d="M 10.78125 -6.46875 L 23.6875 -6.46875 L 23.6875 0 L 3.046875 0 L 3.046875 -30.421875 L 10.78125 -30.421875 Z M 10.78125 -6.46875 "/></g></g></g></svg>