<svg xmlns="http://www.w3.org/2000/svg" xmlns:xlink="http://www.w3.org/1999/xlink" width="500" zoomAndPan="magnify" viewBox="0 0 375 374.999991" height="500" preserveAspectRatio="xMidYMid meet" version="1.0"><defs><filter x="0%" y="0%" width="100%" height="100%" id="791cfff1ef"><feColorMatrix values="0 0 0 0 1 0 0 0 0 1 0 0 0 0 1 0 0 0 1 0" color-interpolation-filters="sRGB"/></filter><mask id="1211fe779f"><g filter="url(#791cfff1ef)"><rect x="-37.5" width="450" fill="#000000" y="-37.499999" height="449.999989" fill-opacity="0.6"/></g></mask><clipPath id="f61961d100"><path d="M 0 0.0390625 L 271.390625 0.0390625 L 271.390625 271.429688 L 0 271.429688 Z M 0 0.0390625 " clip-rule="nonzero"/></clipPath><clipPath id="c8160661c0"><path d="M 40.5 0.0390625 L 230.890625 0.0390625 C 253.257812 0.0390625 271.390625 18.171875 271.390625 40.539062 L 271.390625 230.929688 C 271.390625 253.296875 253.257812 271.429688 230.890625 271.429688 L 40.5 271.429688 C 18.132812 271.429688 0 253.296875 0 230.929688 L 0 40.539062 C 0 18.171875 18.132812 0.0390625 40.5 0.0390625 " clip-rule="nonzero"/></clipPath><clipPath id="1fe632164d"><rect x="0" width="272" y="0" height="272"/></clipPath><mask id="0274bd10d1"><g filter="url(#791cfff1ef)"><rect x="-37.5" width="450" fill="#000000" y="-37.499999" height="449.999989" fill-opacity="0.698"/></g></mask><clipPath id="62c4ab6545"><path d="M 0.785156 0.246094 L 272.179688 0.246094 L 272.179688 271.636719 L 0.785156 271.636719 Z M 0.785156 0.246094 " clip-rule="nonzero"/></clipPath><clipPath id="4511136257"><path d="M 41.285156 0.246094 L 231.679688 0.246094 C 254.046875 0.246094 272.179688 18.378906 272.179688 40.746094 L 272.179688 231.136719 C 272.179688 253.507812 254.046875 271.636719 231.679688 271.636719 L 41.285156 271.636719 C 18.917969 271.636719 0.785156 253.507812 0.785156 231.136719 L 0.785156 40.746094 C 0.785156 18.378906 18.917969 0.246094 41.285156 0.246094 " clip-rule="nonzero"/></clipPath><clipPath id="1527b24bae"><rect x="0" width="273" y="0" height="272"/></clipPath><mask id="0db5c7b497"><g filter="url(#791cfff1ef)"><rect x="-37.5" width="450" fill="#000000" y="-37.499999" height="449.999989" fill-opacity="0.898"/></g></mask><clipPath id="2aa4997ee0"><path d="M 0.609375 0.609375 L 272 0.609375 L 272 272 L 0.609375 272 Z M 0.609375 0.609375 " clip-rule="nonzero"/></clipPath><clipPath id="6b93f4ad6b"><path d="M 41.109375 0.609375 L 231.5 0.609375 C 253.867188 0.609375 272 18.742188 272 41.109375 L 272 231.5 C 272 253.867188 253.867188 272 231.5 272 L 41.109375 272 C 18.742188 272 0.609375 253.867188 0.609375 231.5 L 0.609375 41.109375 C 0.609375 18.742188 18.742188 0.609375 41.109375 0.609375 " clip-rule="nonzero"/></clipPath><clipPath id="9e0448a53c"><rect x="0" width="272" y="0" height="272"/></clipPath></defs><g mask="url(#1211fe779f)"><g transform="matrix(1, 0, 0, 1, 0, 0)"><g clip-path="url(#1fe632164d)"><g clip-path="url(#f61961d100)"><g clip-path="url(#c8160661c0)"><path fill="#5b21b6" d="M 0 0.0390625 L 271.390625 0.0390625 L 271.390625 271.429688 L 0 271.429688 Z M 0 0.0390625 " fill-opacity="1" fill-rule="nonzero"/></g></g></g></g></g><g mask="url(#0274bd10d1)"><g transform="matrix(1, 0, 0, 1, 50, 50)"><g clip-path="url(#1527b24bae)"><g clip-path="url(#62c4ab6545)"><g clip-path="url(#4511136257)"><path fill="#5b21b6" d="M 0.785156 0.246094 L 272.179688 0.246094 L 272.179688 271.636719 L 0.785156 271.636719 Z M 0.785156 0.246094 " fill-opacity="1" fill-rule="nonzero"/></g></g></g></g></g><g mask="url(#0db5c7b497)"><g transform="matrix(1, 0, 0, 1, 103, 103)"><g clip-path="url(#9e0448a53c)"><g clip-path="url(#2aa4997ee0)"><g clip-path="url(#6b93f4ad6b)"><path fill="#5b21b6" d="M 0.609375 0.609375 L 272 0.609375 L 272 272 L 0.609375 272 Z M 0.609375 0.609375 " fill-opacity="1" fill-rule="nonzero"/></g></g></g></g></g></svg>